<?xml version="1.0" encoding="UTF-8" standalone="no"?>
<!DOCTYPE svg PUBLIC "-//W3C//DTD SVG 1.1//EN" "http://www.w3.org/Graphics/SVG/1.1/DTD/svg11.dtd">
<svg width="100%" height="100%" viewBox="0 0 1697 1686" version="1.1" xmlns="http://www.w3.org/2000/svg" xmlns:xlink="http://www.w3.org/1999/xlink" xml:space="preserve" xmlns:serif="http://www.serif.com/" style="fill-rule:evenodd;clip-rule:evenodd;stroke-linejoin:round;stroke-miterlimit:2;">
    <g transform="matrix(1,0,0,1,-905.657,-368.094)">
        <g transform="matrix(1,0,0,1,9.09495e-13,-29.5276)">
            <path d="M1654.79,933.686C1525.5,975.539 1431.89,1097 1431.89,1240.16C1431.89,1417.9 1576.19,1562.2 1753.94,1562.2C1897.09,1562.2 2018.56,1468.6 2060.41,1339.31L1753.94,1339.31L1753.94,1141.01L2596.47,1141.01C2600.27,1173.53 2602.22,1206.62 2602.22,1240.16C2602.22,1674.8 2274.62,2033.53 1853.09,2082.69L1853.09,1882.61C2132.5,1839.77 2353.55,1618.72 2396.39,1339.31L2286.25,1339.31C2239.62,1590.83 2018.88,1781.55 1753.94,1781.55C1489,1781.55 1268.25,1590.83 1221.62,1339.31L911.401,1339.31C907.607,1306.78 905.657,1273.69 905.657,1240.16C905.657,805.516 1233.25,446.786 1654.79,397.621L1654.79,597.705C1375.37,640.548 1154.33,861.592 1111.49,1141.01L1221.62,1141.01C1262.29,921.636 1435.42,748.515 1654.79,707.844L1654.79,933.686ZM1853.09,397.621C2173.14,434.95 2439.04,650.736 2548.52,942.709L2331.92,942.709C2238.37,761.454 2062.05,629.746 1853.09,597.705L1853.09,397.621ZM1654.79,2082.69C1334.73,2045.37 1068.83,1829.58 959.355,1537.61L1175.96,1537.61C1269.51,1718.86 1445.82,1850.57 1654.79,1882.61L1654.79,2082.69Z" style="fill:rgb(45,163,171);"/>
        </g>
    </g>
</svg>
