<?xml version="1.0" encoding="UTF-8" standalone="no"?>
<!DOCTYPE svg PUBLIC "-//W3C//DTD SVG 1.1//EN" "http://www.w3.org/Graphics/SVG/1.1/DTD/svg11.dtd">
<svg width="100%" height="100%" viewBox="0 0 1416 394" version="1.1" xmlns="http://www.w3.org/2000/svg" xmlns:xlink="http://www.w3.org/1999/xlink" xml:space="preserve" xmlns:serif="http://www.serif.com/" style="fill-rule:evenodd;clip-rule:evenodd;stroke-linejoin:round;stroke-miterlimit:2;">
    <g transform="matrix(1,0,0,1,-880.476,-1287.2)">
        <path d="M1055.38,1412.36C1025.2,1422.13 1003.34,1450.49 1003.34,1483.91C1003.34,1525.41 1037.04,1559.11 1078.54,1559.11C1111.96,1559.11 1140.32,1537.25 1150.09,1507.06L1078.54,1507.06L1078.54,1460.76L1275.25,1460.76C1276.14,1468.36 1276.59,1476.08 1276.59,1483.91C1276.59,1585.39 1200.11,1669.15 1101.68,1680.63L1101.68,1633.91C1166.92,1623.91 1218.53,1572.3 1228.54,1507.06L1202.82,1507.06C1191.93,1565.79 1140.39,1610.32 1078.54,1610.32C1016.68,1610.32 965.136,1565.79 954.249,1507.06L881.817,1507.06C880.931,1499.47 880.476,1491.74 880.476,1483.91C880.476,1382.43 956.964,1298.67 1055.38,1287.19L1055.38,1333.91C990.146,1343.91 938.536,1395.52 928.533,1460.76L954.249,1460.76C963.744,1409.54 1004.17,1369.12 1055.38,1359.63L1055.38,1412.36Z" style="fill:rgb(45,163,171);"/>
        <path d="M1101.68,1287.19C1176.41,1295.91 1238.5,1346.29 1264.06,1414.46L1213.48,1414.46C1191.64,1372.14 1150.47,1341.39 1101.68,1333.91L1101.68,1287.19Z" style="fill:rgb(199,209,209);"/>
        <path d="M1055.38,1680.63C980.658,1671.91 918.574,1621.53 893.013,1553.36L943.586,1553.36C965.428,1595.68 1006.6,1626.43 1055.38,1633.91L1055.38,1680.63Z" style="fill:rgb(199,209,209);"/>
        <g transform="matrix(1,0,0,1,0,-13.2608)">
            <g transform="matrix(0.769489,0,0,0.769489,162.826,333.798)">
                <g id="path1186" transform="matrix(4.16667,0,0,4.16667,1323.74,1186.76)">
                    <path d="M208.327,44.769L207.415,43.848L210.901,40.423L214.386,36.997L218.24,36.998L213.827,41.344C211.4,43.734 209.376,45.69 209.327,45.69C209.279,45.69 208.829,45.275 208.328,44.769Z" style="fill:rgb(93,93,93);fill-rule:nonzero;"/>
                </g>
                <g id="path1184" transform="matrix(4.16667,0,0,4.16667,1323.74,1186.76)">
                    <path d="M210.901,54.807L207.416,51.378L208.359,50.436L209.302,49.493L211.701,51.792C213.021,53.056 215.031,55.026 216.169,56.17L218.236,58.249L214.386,58.236L210.901,54.807L210.901,54.807Z" style="fill:rgb(93,93,93);fill-rule:nonzero;"/>
                </g>
                <g id="path1182" transform="matrix(4.16667,0,0,4.16667,1323.74,1186.76)">
                    <path d="M196.449,54.642C198.465,52.659 200.628,50.54 201.256,49.935L202.398,48.834L177.064,48.83L177.064,46.546L189.695,46.546C196.642,46.546 202.325,46.498 202.323,46.439C202.321,46.38 200.185,44.245 197.576,41.693L192.831,37.055L194.733,37.015L196.636,36.975L202.06,42.295L207.485,47.614L202.087,52.924L196.689,58.235L192.783,58.249L196.449,54.641L196.449,54.642Z" style="fill:rgb(93,93,93);fill-rule:nonzero;"/>
                </g>
                <g id="path1180" transform="matrix(4.16667,0,0,4.16667,1323.74,1186.76)">
                    <path d="M168.644,47.617L168.644,36.984L189.909,36.984L189.909,39.265L180.525,39.302L171.141,39.338L171.067,55.823L189.909,55.823L189.909,58.249L168.643,58.249L168.644,47.617Z" style="fill:rgb(93,93,93);fill-rule:nonzero;"/>
                </g>
                <g transform="matrix(4.16667,0,0,4.16667,1323.74,1186.76)">
                    <path d="M140.384,36.968L140.384,58.249L143.096,58.249L143.096,49.971L152.488,49.971L156.748,54.11L161.008,58.247L164.861,58.245L160.658,54.137L156.454,50.029L157.817,49.806C160.235,49.411 161.796,48.366 162.604,46.602C162.952,45.841 162.959,45.756 162.91,43.08C162.863,40.59 162.829,40.273 162.532,39.625C162.135,38.755 161.621,38.195 160.865,37.806C159.442,37.073 159.5,37.077 149.626,37.021L140.384,36.968ZM143.167,39.338L150.232,39.339C157.902,39.339 158.557,39.393 159.387,40.092C160.091,40.683 160.223,41.18 160.222,43.223C160.222,44.227 160.156,45.283 160.076,45.571C159.886,46.256 159.128,46.907 158.201,47.182C157.575,47.368 156.334,47.402 150.275,47.402L143.092,47.402L143.129,43.37L143.167,39.338Z" style="fill:rgb(93,93,93);fill-rule:nonzero;"/>
                </g>
                <g id="path1174" transform="matrix(4.16667,0,0,4.16667,1323.74,1186.76)">
                    <path d="M123.686,58.249L123.686,39.267L113.695,39.267L113.695,36.984L136.531,36.984L136.531,39.267L126.54,39.267L126.54,58.249L123.686,58.249Z" style="fill:rgb(93,93,93);fill-rule:nonzero;"/>
                </g>
                <g id="path1172" transform="matrix(4.16667,0,0,4.16667,1323.74,1186.76)">
                    <path d="M85.293,47.613L85.293,36.976L87.335,37.015L89.378,37.055L98.36,46.189C103.3,51.213 107.39,55.345 107.45,55.371C107.509,55.397 107.558,51.271 107.558,46.201L107.558,36.984L110.27,36.984L110.27,58.249L106.179,58.249L97.128,49.026L88.076,39.803L88.002,58.249L85.293,58.249L85.293,47.613L85.293,47.613Z" style="fill:rgb(93,93,93);fill-rule:nonzero;"/>
                </g>
                <g id="path1170" transform="matrix(4.16667,0,0,4.16667,1323.74,1186.76)">
                    <rect x="77.158" y="36.984" width="2.712" height="21.266" style="fill:rgb(93,93,93);fill-rule:nonzero;"/>
                </g>
                <g id="path920" transform="matrix(4.16667,0,0,4.16667,1323.74,1186.76)">
                    <path d="M50.04,58.265L50.04,55.834L58.639,55.793C67.061,55.753 67.252,55.746 67.894,55.449C69.197,54.846 69.593,54.044 69.593,52.008C69.593,50.033 68.968,49.278 67.074,48.968C66.615,48.893 63.927,48.83 61.101,48.829C55.672,48.827 54.063,48.72 52.589,48.263C50.773,47.7 50.014,46.609 49.738,44.166C49.38,40.996 50.172,38.868 52.071,37.898C53.628,37.102 53.864,37.083 62.707,37.021L70.878,36.965L70.878,39.41L63.492,39.411C59.07,39.412 55.734,39.472 55.178,39.561C53.169,39.882 52.381,40.672 52.226,42.519C52.067,44.418 52.553,45.41 53.896,45.924C54.453,46.137 55.391,46.181 61.101,46.264C66.567,46.343 67.805,46.399 68.492,46.595C70.208,47.084 71.1,47.739 71.691,48.943C72.08,49.735 72.091,49.822 72.091,52.112C72.091,54.349 72.072,54.507 71.721,55.252C71.223,56.311 70.757,56.83 69.876,57.309C68.298,58.168 68.459,58.155 58.853,58.213L50.04,58.265Z" style="fill:rgb(93,93,93);fill-rule:nonzero;"/>
                </g>
            </g>
            <g transform="matrix(1,0,0,1,-3.63859,10.3737)">
                <path d="M1395.73,1618.46C1388.83,1618.46 1382.34,1617.81 1376.25,1616.51C1370.16,1615.21 1364.47,1613.25 1359.16,1610.65C1353.86,1608.04 1348.89,1604.79 1344.27,1600.88L1352.77,1589.75C1358.76,1594.96 1365.31,1598.87 1372.44,1601.47C1379.57,1604.07 1387.34,1605.38 1395.73,1605.38C1407.97,1605.38 1417.41,1602.97 1424.06,1598.15C1430.69,1593.33 1434.02,1586.56 1434.02,1577.84L1434.02,1577.74C1434.02,1571.81 1432.39,1567.26 1429.13,1564.07C1425.88,1560.88 1421.63,1558.47 1416.39,1556.84C1411.15,1555.21 1405.47,1553.81 1399.35,1552.64C1393.68,1551.53 1388,1550.31 1382.31,1548.98C1376.61,1547.64 1371.4,1545.76 1366.68,1543.31C1361.96,1540.87 1358.17,1537.42 1355.31,1532.96C1352.44,1528.5 1351.01,1522.6 1351.01,1515.24L1351.01,1515.14C1351.01,1501.92 1355.4,1491.69 1364.19,1484.43C1372.98,1477.17 1385.38,1473.54 1401.4,1473.54C1408.95,1473.54 1416.36,1474.76 1423.62,1477.2C1430.87,1479.64 1438.02,1483.37 1445.05,1488.38L1436.75,1499.42C1430.63,1495.12 1424.64,1491.91 1418.78,1489.8C1412.92,1487.68 1407.13,1486.62 1401.4,1486.62C1389.81,1486.62 1380.83,1489.05 1374.44,1493.9C1368.07,1498.75 1364.88,1505.63 1364.88,1514.56L1364.88,1514.65C1364.88,1520.51 1366.68,1524.97 1370.3,1528.03C1373.91,1531.09 1378.6,1533.4 1384.36,1534.97C1390.12,1536.53 1396.22,1537.96 1402.67,1539.26C1408.14,1540.37 1413.56,1541.67 1418.93,1543.17C1424.3,1544.66 1429.16,1546.72 1433.53,1549.32C1437.89,1551.92 1441.37,1555.46 1443.98,1559.92C1446.58,1564.38 1447.88,1570.12 1447.88,1577.15L1447.88,1577.35C1447.88,1590.43 1443.33,1600.56 1434.21,1607.72C1425.1,1614.88 1412.27,1618.46 1395.73,1618.46Z" style="fill:rgb(199,209,209);fill-rule:nonzero;"/>
                <path d="M1515.17,1618.46C1500.52,1618.46 1489.55,1614.8 1482.26,1607.48C1474.97,1600.15 1471.32,1589.13 1471.32,1574.42L1471.32,1557.72C1471.32,1543.13 1474.97,1532.23 1482.26,1525C1489.55,1517.78 1500.52,1514.16 1515.17,1514.16C1523.5,1514.16 1530.71,1515.52 1536.8,1518.22C1542.89,1520.92 1547.91,1524.97 1551.89,1530.38L1541.44,1539.65C1537.99,1535.49 1534.1,1532.38 1529.77,1530.33C1525.44,1528.28 1520.67,1527.25 1515.46,1527.25C1505.43,1527.25 1497.91,1529.77 1492.9,1534.82C1487.89,1539.86 1485.38,1547.5 1485.38,1557.72L1485.38,1574.42C1485.38,1584.77 1487.89,1592.52 1492.9,1597.66C1497.91,1602.8 1505.43,1605.38 1515.46,1605.38C1521,1605.38 1526.02,1604.4 1530.55,1602.44C1535.07,1600.49 1539.16,1597.53 1542.81,1593.56L1551.89,1602.54C1547.91,1607.88 1542.89,1611.87 1536.8,1614.51C1530.71,1617.14 1523.5,1618.46 1515.17,1618.46Z" style="fill:rgb(199,209,209);fill-rule:nonzero;"/>
                <path d="M1635.97,1617L1635.97,1552.74C1635.97,1544.54 1633.77,1538.17 1629.38,1533.65C1624.98,1529.12 1618.75,1526.86 1610.68,1526.86C1605.92,1526.86 1601.24,1527.64 1596.61,1529.2C1591.99,1530.77 1587.86,1532.98 1584.21,1535.84L1573.96,1528.81C1577.8,1524.19 1582.86,1520.59 1589.14,1518.02C1595.42,1515.45 1602.41,1514.16 1610.09,1514.16C1622.79,1514.16 1632.62,1517.45 1639.58,1524.03C1646.55,1530.6 1650.03,1539.88 1650.03,1551.86L1650.03,1617L1635.97,1617ZM1606.28,1618.46C1594.43,1618.46 1585.25,1615.73 1578.74,1610.26C1572.23,1604.79 1568.98,1597.07 1568.98,1587.11C1568.98,1577.54 1571.97,1570.14 1577.96,1564.9C1583.95,1559.66 1592.35,1557.04 1603.16,1557.04L1636.85,1557.04L1638.22,1570.12L1603.25,1570.12C1596.74,1570.12 1591.71,1571.6 1588.17,1574.56C1584.62,1577.53 1582.84,1581.71 1582.84,1587.11C1582.84,1592.84 1585.07,1597.29 1589.53,1600.44C1593.99,1603.6 1600.29,1605.18 1608.43,1605.18C1617.15,1605.18 1623.92,1604.3 1628.74,1602.54C1633.56,1600.79 1635.97,1598.31 1635.97,1595.12L1638.02,1608.4C1636,1610.55 1633.41,1612.37 1630.26,1613.87C1627.1,1615.37 1623.5,1616.51 1619.47,1617.29C1615.43,1618.07 1611.03,1618.46 1606.28,1618.46Z" style="fill:rgb(199,209,209);fill-rule:nonzero;"/>
                <path d="M1680.31,1617L1680.31,1515.63L1694.37,1515.63L1694.37,1617L1680.31,1617ZM1747.69,1617L1747.69,1555.57C1747.69,1546.59 1745.33,1539.62 1740.61,1534.67C1735.89,1529.72 1729.23,1527.25 1720.64,1527.25C1712.3,1527.25 1705.84,1529.45 1701.25,1533.84C1696.66,1538.24 1694.37,1544.47 1694.37,1552.54L1692.32,1533.01C1696.09,1526.05 1701.02,1521.16 1707.11,1518.36C1713.2,1515.56 1719.89,1514.16 1727.18,1514.16C1738.18,1514.16 1746.69,1517.76 1752.72,1524.95C1758.74,1532.15 1761.75,1542.32 1761.75,1555.47L1761.75,1617L1747.69,1617Z" style="fill:rgb(199,209,209);fill-rule:nonzero;"/>
                <path d="M1841.83,1544.44L1891.05,1544.44L1891.05,1565.34C1891.05,1577.18 1889.21,1587.05 1885.53,1594.93C1881.85,1602.8 1876.33,1608.69 1868.98,1612.6C1861.62,1616.51 1852.41,1618.46 1841.34,1618.46C1830.14,1618.46 1820.82,1616.62 1813.36,1612.94C1805.91,1609.27 1800.32,1603.72 1796.61,1596.29C1792.9,1588.87 1791.05,1579.59 1791.05,1568.46L1791.05,1526.57C1791.05,1514.72 1792.89,1504.87 1796.56,1497.03C1800.24,1489.18 1805.76,1483.31 1813.12,1479.4C1820.47,1475.49 1829.69,1473.54 1840.75,1473.54C1849.93,1473.54 1857.84,1475.1 1864.48,1478.23C1871.12,1481.35 1876.56,1486.02 1880.79,1492.24C1885.03,1498.46 1888.05,1506.29 1889.88,1515.73L1874.64,1515.73C1872.17,1506.03 1868.11,1498.75 1862.48,1493.9C1856.85,1489.05 1849.61,1486.62 1840.75,1486.62C1828.84,1486.62 1819.92,1489.94 1814,1496.59C1808.07,1503.23 1805.11,1513.22 1805.11,1526.57L1805.11,1568.46C1805.11,1580.83 1808.12,1590.08 1814.14,1596.19C1820.16,1602.32 1829.23,1605.38 1841.34,1605.38C1852.99,1605.38 1861.72,1602.18 1867.51,1595.81C1873.31,1589.42 1876.2,1579.37 1876.2,1565.63L1876.2,1557.52L1841.83,1557.52L1841.83,1544.44Z" style="fill:rgb(199,209,209);fill-rule:nonzero;"/>
                <path d="M1988.31,1617L1988.31,1515.63L2002.28,1515.63L2002.28,1617L1988.31,1617ZM1935.38,1515.63L1935.38,1577.25C1935.38,1586.17 1937.71,1593.09 1942.37,1598C1947.02,1602.92 1953.55,1605.38 1961.94,1605.38C1970.34,1605.38 1976.84,1603.11 1981.43,1598.59C1986.02,1594.06 1988.31,1587.73 1988.31,1579.59L1989.68,1600.79C1987.47,1605.34 1983.59,1609.43 1978.06,1613.04C1972.53,1616.65 1965.3,1618.46 1956.38,1618.46C1945.18,1618.46 1936.54,1614.86 1930.45,1607.67C1924.36,1600.48 1921.32,1590.34 1921.32,1577.25L1921.32,1515.63L1935.38,1515.63Z" style="fill:rgb(199,209,209);fill-rule:nonzero;"/>
                <path d="M2094.66,1617L2094.66,1552.74C2094.66,1544.54 2092.46,1538.17 2088.07,1533.65C2083.67,1529.12 2077.44,1526.86 2069.37,1526.86C2064.62,1526.86 2059.93,1527.64 2055.3,1529.2C2050.68,1530.77 2046.55,1532.98 2042.9,1535.84L2032.65,1528.81C2036.49,1524.19 2041.55,1520.59 2047.83,1518.02C2054.12,1515.45 2061.1,1514.16 2068.78,1514.16C2081.48,1514.16 2091.31,1517.45 2098.27,1524.03C2105.24,1530.6 2108.72,1539.88 2108.72,1551.86L2108.72,1617L2094.66,1617ZM2064.97,1618.46C2053.12,1618.46 2043.94,1615.73 2037.43,1610.26C2030.92,1604.79 2027.67,1597.07 2027.67,1587.11C2027.67,1577.54 2030.66,1570.14 2036.65,1564.9C2042.64,1559.66 2051.04,1557.04 2061.85,1557.04L2095.54,1557.04L2096.91,1570.12L2061.95,1570.12C2055.43,1570.12 2050.41,1571.6 2046.86,1574.56C2043.31,1577.53 2041.54,1581.71 2041.54,1587.11C2041.54,1592.84 2043.77,1597.29 2048.22,1600.44C2052.68,1603.6 2058.98,1605.18 2067.12,1605.18C2075.85,1605.18 2082.62,1604.3 2087.43,1602.54C2092.25,1600.79 2094.66,1598.31 2094.66,1595.12L2096.71,1608.4C2094.69,1610.55 2092.11,1612.37 2088.95,1613.87C2085.79,1615.37 2082.19,1616.51 2078.16,1617.29C2074.12,1618.07 2069.72,1618.46 2064.97,1618.46Z" style="fill:rgb(199,209,209);fill-rule:nonzero;"/>
                <path d="M2139,1617L2139,1515.63L2153.06,1515.63L2153.06,1617L2139,1617ZM2198.66,1533.79C2196.58,1531.64 2193.96,1530.02 2190.8,1528.91C2187.64,1527.8 2183.98,1527.25 2179.82,1527.25C2171.29,1527.25 2164.7,1529.53 2160.04,1534.09C2155.39,1538.64 2153.06,1544.89 2153.06,1552.84L2151.01,1533.31C2154.72,1527.32 2159.57,1522.63 2165.56,1519.24C2171.55,1515.86 2178.16,1514.16 2185.38,1514.16C2190.01,1514.16 2194.19,1514.83 2197.93,1516.17C2201.68,1517.5 2204.95,1519.47 2207.75,1522.07L2198.66,1533.79Z" style="fill:rgb(199,209,209);fill-rule:nonzero;"/>
                <path d="M2285.87,1617L2285.87,1475L2299.93,1475L2299.93,1617L2285.87,1617ZM2254.52,1618.46C2243.39,1618.46 2234.76,1614.88 2228.64,1607.72C2222.53,1600.56 2219.47,1590.5 2219.47,1577.54L2219.47,1555.47C2219.47,1542.32 2222.44,1532.15 2228.4,1524.95C2234.36,1517.76 2242.74,1514.16 2253.55,1514.16C2260.84,1514.16 2267.48,1515.53 2273.47,1518.27C2279.46,1521 2284.28,1525.82 2287.92,1532.72L2285.87,1552.25C2285.87,1547.89 2284.86,1543.74 2282.84,1539.8C2280.83,1535.86 2277.9,1532.62 2274.05,1530.08C2270.21,1527.54 2265.56,1526.27 2260.09,1526.27C2251.63,1526.27 2245.08,1528.83 2240.46,1533.94C2235.84,1539.05 2233.53,1546.26 2233.53,1555.57L2233.53,1577.54C2233.53,1586.66 2235.84,1593.74 2240.46,1598.78C2245.08,1603.83 2251.63,1606.35 2260.09,1606.35C2265.56,1606.35 2270.21,1605.05 2274.05,1602.44C2277.9,1599.84 2280.83,1596.51 2282.84,1592.44C2284.86,1588.37 2285.87,1584.18 2285.87,1579.89L2287.24,1601.08C2284.57,1607.59 2280.39,1612.11 2274.69,1614.65C2268.99,1617.19 2262.27,1618.46 2254.52,1618.46Z" style="fill:rgb(199,209,209);fill-rule:nonzero;"/>
            </g>
        </g>
    </g>
</svg>
